#N canvas 0 0 900 650 12;
#X text 30 15 Trigger Bells - SightCue BLIP;
#X text 30 35 trigger fire -> bell sound (C major chord);
#X obj 50 80 else/osc.receive 8000;
#X obj 50 120 else/osc.route /blip;
#X obj 50 160 else/osc.route /trigger1 /trigger2 /trigger3 /trigger4;
#X msg 50 220 0 \, 1 5 \, 0 2000;
#X obj 50 260 vline~;
#X obj 50 300 osc~ 523;
#X obj 50 340 *~;
#X msg 250 220 0 \, 1 5 \, 0 2000;
#X obj 250 260 vline~;
#X obj 250 300 osc~ 659;
#X obj 250 340 *~;
#X msg 450 220 0 \, 1 5 \, 0 2000;
#X obj 450 260 vline~;
#X obj 450 300 osc~ 784;
#X obj 450 340 *~;
#X msg 650 220 0 \, 1 5 \, 0 2000;
#X obj 650 260 vline~;
#X obj 650 300 osc~ 1047;
#X obj 650 340 *~;
#X obj 50 400 +~;
#X obj 50 440 +~;
#X obj 50 480 +~;
#X obj 50 520 *~ 0.25;
#X obj 50 570 else/out~ 1;
#X text 120 300 C5;
#X text 320 300 E5;
#X text 520 300 G5;
#X text 720 300 C6;
#X connect 2 0 3 0;
#X connect 3 0 4 0;
#X connect 4 0 5 0;
#X connect 4 1 9 0;
#X connect 4 2 13 0;
#X connect 4 3 17 0;
#X connect 5 0 6 0;
#X connect 6 0 8 1;
#X connect 7 0 8 0;
#X connect 9 0 10 0;
#X connect 10 0 12 1;
#X connect 11 0 12 0;
#X connect 13 0 14 0;
#X connect 14 0 16 1;
#X connect 15 0 16 0;
#X connect 17 0 18 0;
#X connect 18 0 20 1;
#X connect 19 0 20 0;
#X connect 8 0 21 0;
#X connect 12 0 21 1;
#X connect 21 0 22 0;
#X connect 16 0 22 1;
#X connect 22 0 23 0;
#X connect 20 0 23 1;
#X connect 23 0 24 0;
#X connect 24 0 25 0;
