#N canvas 0 0 900 650 12;
#X text 30 15 Face Synth - SightCue MediaPipe;
#X text 30 35 mouth -> filter \, nose -> pitch \, eyebrow -> volume;
#X obj 50 80 else/osc.receive 8000;
#X obj 50 120 else/osc.route /face;
#X obj 50 170 else/osc.route /mouth;
#X obj 50 210 else/osc.route /lower;
#X obj 50 250 else/osc.route /y;
#X obj 50 290 else/smooth 50;
#X obj 50 330 cyclone/scale 0.45 0.65 200 4000;
#X text 185 335 mouth -> filter freq;
#X obj 300 170 else/osc.route /nose;
#X obj 300 210 else/osc.route /tip;
#X obj 300 250 else/osc.route /x;
#X obj 300 290 else/smooth 50;
#X obj 300 330 cyclone/scale 0.2 0.8 150 600;
#X text 435 335 nose x -> pitch;
#X obj 550 170 else/osc.route /left_eyebrow;
#X obj 550 210 else/osc.route /middle;
#X obj 550 250 else/osc.route /y;
#X obj 550 290 else/smooth 50;
#X obj 550 330 cyclone/scale 0.35 0.15 0 0.5;
#X text 700 335 eyebrow -> volume;
#X obj 300 400 osc~;
#X obj 50 440 vcf~ 0 8;
#X obj 50 490 *~;
#X obj 50 550 else/out~ 1;
#X connect 2 0 3 0;
#X connect 3 0 4 0;
#X connect 3 0 10 0;
#X connect 3 0 16 0;
#X connect 4 0 5 0;
#X connect 5 0 6 0;
#X connect 6 0 7 0;
#X connect 7 0 8 0;
#X connect 10 0 11 0;
#X connect 11 0 12 0;
#X connect 12 0 13 0;
#X connect 13 0 14 0;
#X connect 16 0 17 0;
#X connect 17 0 18 0;
#X connect 18 0 19 0;
#X connect 19 0 20 0;
#X connect 14 0 22 0;
#X connect 22 0 23 0;
#X connect 8 0 23 1;
#X connect 23 0 24 0;
#X connect 20 0 24 1;
#X connect 24 0 25 0;
