#N canvas 0 0 900 700 12;
#X text 30 15 Class Drum - SightCue Teachable Machine;
#X text 30 35 class -> drum sound \, confidence -> volume;
#X text 30 55 Change ROI_1 and class names to match your TM model;
#X obj 50 100 else/osc.receive 8000;
#X obj 50 140 else/osc.route /tm;
#X obj 50 180 else/osc.route /ROI_1;
#X obj 50 220 else/osc.route /class /confidence;
#X obj 50 270 route class_1 class_2 class_3;
#X msg 50 310 0;
#X msg 150 310 1;
#X msg 250 310 2;
#X obj 50 350 f 0;
#X obj 50 390 change;
#X obj 50 430 select 0 1 2;
#X msg 50 480 0 \, 1 2 \, 0 300;
#X obj 50 520 vline~;
#X obj 50 560 osc~ 80;
#X obj 50 600 *~;
#X msg 300 480 0 \, 1 2 \, 0 150;
#X obj 300 520 vline~;
#X obj 300 560 noise~;
#X obj 300 600 bp~ 1000 3;
#X obj 300 640 *~;
#X msg 550 480 0 \, 1 2 \, 0 50;
#X obj 550 520 vline~;
#X obj 550 560 noise~;
#X obj 550 600 hip~ 5000;
#X obj 550 640 *~;
#X obj 50 680 +~;
#X obj 50 720 +~;
#X obj 50 760 *~ 0.3;
#X obj 50 810 else/out~ 1;
#X obj 500 270 else/smooth 50;
#X obj 500 310 cyclone/scale 0 1 0.1 0.5;
#X text 120 560 kick;
#X text 370 560 snare;
#X text 620 560 hihat;
#X connect 3 0 4 0;
#X connect 4 0 5 0;
#X connect 5 0 6 0;
#X connect 6 0 7 0;
#X connect 6 1 32 0;
#X connect 7 0 8 0;
#X connect 7 1 9 0;
#X connect 7 2 10 0;
#X connect 8 0 11 0;
#X connect 9 0 11 0;
#X connect 10 0 11 0;
#X connect 11 0 12 0;
#X connect 12 0 13 0;
#X connect 13 0 14 0;
#X connect 13 1 18 0;
#X connect 13 2 23 0;
#X connect 14 0 15 0;
#X connect 15 0 17 1;
#X connect 16 0 17 0;
#X connect 18 0 19 0;
#X connect 19 0 22 1;
#X connect 20 0 21 0;
#X connect 21 0 22 0;
#X connect 23 0 24 0;
#X connect 24 0 27 1;
#X connect 25 0 26 0;
#X connect 26 0 27 0;
#X connect 17 0 28 0;
#X connect 22 0 28 1;
#X connect 28 0 29 0;
#X connect 27 0 29 1;
#X connect 29 0 30 0;
#X connect 30 0 31 0;
#X connect 32 0 33 0;
#X connect 33 0 30 1;
